<svg xmlns="http://www.w3.org/2000/svg" fill="none" viewBox="0 0 120 120">
	<g id="primary-line">
		<path fill="#242D3D" fill-rule="evenodd" d="M74 37c3.2 0 4.54 2.66 4.87 3.46L82.92 51H84v-2c0-1.1.9-2 2-2h.2a4 4 0 013.8 3.8v.2a2 2 0 01-2 2h-4.32l.2.5 2.83 3.79.09.11c.1.14.17.3.2.47V81a2 2 0 01-1.85 2H77a2 2 0 01-2-1.85V77H45v4a2 2 0 01-1.85 2H35a2 2 0 01-2-1.85V58c0-.18.05-.35.13-.5l.07-.1.09-.11 2.83-3.79.2-.5H32a2 2 0 01-2-2v-.2a4 4 0 013.8-3.8h.2a2 2 0 012 2v2h1.09l3.98-10.36.03-.1c.2-.54 1.44-3.37 4.61-3.53L46 37h28zm0 2H46c-2.06 0-2.9 1.93-3.03 2.27l-.02.05-5.02 13.04a.92.92 0 01-.13.24l-.09.11-2.54 3.4 8.93.89c.5.06.9.48.9 1v.12l-.03.12-1 4a1 1 0 01-.85.75L43 65h-8v16h8v-6h34v6h8V65h-8a1 1 0 01-.94-.65l-.03-.11-1-4a.99.99 0 01.76-1.21l.11-.02V59l8.93-.89-2.54-3.4-.09-.11-.1-.15-.03-.09-5.04-13.1C76.83 40.77 75.98 39 74 39zm-3.18 26H49.18l.67 4h20.3l.67-4zm1.17 5.16h-.01a.98.98 0 01-.87.83L71 71H49a.98.98 0 01-.96-.73l-.02-.11h-.01l-.99-5.96v-.04c-.02-.05-.02-.1-.02-.16a1 1 0 01.88-1H72a1 1 0 011 1v.11l-.02.05h.01l-.01.04-.99 5.96zM85 60.11l-7.75.77.53 2.12H85v-2.89zm-50 0V63h7.22l.53-2.12-7.75-.77zM86 49v2h2a2 2 0 00-1.85-2H86zm-52 0h-.15a2 2 0 00-1.84 1.84L32 51h2v-2z" clip-rule="evenodd"/>
	</g>
	<g id="secondary-line">
		<path fill="#4871D9" fill-rule="evenodd" d="M15.03 43.03l1.42 1.42a21.93 21.93 0 00-.3 30.8l.3.3-1.42 1.42A23.93 23.93 0 018 60c0-6.63 2.69-12.63 7.03-16.97zm89.94 0A23.93 23.93 0 01112 60c0 6.47-2.56 12.35-6.73 16.67l-.3.3-1.42-1.42a21.93 21.93 0 00.3-30.8l-.3-.3 1.42-1.42zM20.7 48.69l1.41 1.41a13.96 13.96 0 00-.25 19.53l.25.27-1.41 1.41a15.95 15.95 0 010-22.63zm78.62 0c2.9 2.9 4.69 6.9 4.69 11.31 0 4.28-1.68 8.17-4.42 11.04l-.27.27-1.42-1.42a13.96 13.96 0 00.26-19.52l-.26-.27 1.42-1.41zm-72.97 5.65l1.42 1.42a5.98 5.98 0 00-.19 8.28l.19.2-1.42 1.42a7.97 7.97 0 010-11.32zm67.32 0a7.97 7.97 0 01.2 11.1l-.2.22-1.42-1.42a5.98 5.98 0 00.19-8.28l-.19-.2 1.42-1.42z" clip-rule="evenodd"/>
	</g>
	<g id="fill">
		<path fill="#fff" fill-rule="evenodd" d="M77.07 41.36C77.02 41.23 76.22 39 74 39H46c-2.22 0-3.02 2.23-3.05 2.32L38.45 53c6.37-8.02 19.13-11.97 38.62-11.64" clip-rule="evenodd"/>
		<path fill="#4871D9" fill-opacity=".5" fill-rule="evenodd" d="M77.07 41.36C77.02 41.23 76.22 39 74 39H46c-2.22 0-3.02 2.23-3.05 2.32L38.45 53c6.37-8.02 19.13-11.97 38.62-11.64" clip-rule="evenodd"/>
	</g>
</svg>
