<svg xmlns="http://www.w3.org/2000/svg" viewBox="0 0 120 120"><path d="M72 38v-4h4v-2H66v2h4v4a22 22 0 102 0zm-1 42a20 20 0 1120-20 20 20 0 01-20 20z" fill="#232c5b"/><path d="M70.84 66.44a4.62 4.62 0 00-1.92-.55c-.84 0-1.21.31-1.21 1H65.9a2.4 2.4 0 012.6-2.73h.15a10.88 10.88 0 00.09-1.16 4.21 4.21 0 00-.49-1.8h-2.1v-1.63h1.24a5.73 5.73 0 01-.75-2.48v-.27c0-2.31 1.59-3.88 4.22-3.88a3.72 3.72 0 014 3.9v.21H73V57c0-1.47-.61-2.38-2.21-2.38a2.12 2.12 0 00-2.2 2.35 5.21 5.21 0 001 2.65h3.84v1.62h-3.14a5.13 5.13 0 01.27 1.61 8.53 8.53 0 01-.14 1.72c.44.15.84.32 1.26.49a4.12 4.12 0 001.49.33c.9 0 1.26-.56 1.21-1.42h1.72v.25a2.73 2.73 0 01-3 2.89 5.1 5.1 0 01-2.26-.67z" fill="#a4261f"/><path d="M71 44a16 16 0 1016 16 16 16 0 00-16-16zm0 30a14 14 0 1114-14 14 14 0 01-14 14z" fill="#a4261f"/><path fill="#f1c5c4" d="M28 51h18v2H28zM34 43h16v2H34zM22 59h22v2H22zM28 67h18v2H28zM34 75h16v2H34z"/></svg>