<svg xmlns="http://www.w3.org/2000/svg" fill="none" viewBox="0 0 120 120">
	<g id="primary-line">
		<path fill="#242D3D" fill-rule="evenodd" d="M74.35 84.49l-.1-.04a1 1 0 00-1.21.46c-.02.01-.02.03-.03.05l-3.33 6.15-6.28-16.36a23.8 23.8 0 0011.1-4.62l6.38 16.68-6.53-2.32zM60 73c-12.13 0-22-9.87-22-22s9.87-22 22-22 22 9.87 22 22-9.87 22-22 22zm-9.68 18.1L47 84.94c0-.01 0-.03-.02-.04-.1-.2-.29-.37-.52-.46a1 1 0 00-.7-.01l-6.63 2.36 6.39-16.66a23.8 23.8 0 0011.09 4.62L50.32 91.1zM76.1 68.79a24 24 0 10-32.21 0l-7.42 19.32a1 1 0 001.27 1.3.3.3 0 00.1-.04l7.77-2.77 3.96 7.32.02.04a1 1 0 001.82-.12l7.24-18.88a20.03 20.03 0 002.69 0l7.25 18.9a1 1 0 001.29.57c.23-.09.42-.26.53-.46l.02-.04 3.95-7.31 7.88 2.8c.22.08.46.09.7 0a1 1 0 00.57-1.3L76.1 68.79z" clip-rule="evenodd"/>
	</g>
	<g id="secondary-line">
		<path fill="#4871D9" fill-rule="evenodd" d="M72 43.91l-15.29 15.3a1.02 1.02 0 01-1.42 0L48 51.91l1.41-1.41L56 57.08 70.59 42.5 72 43.91z" clip-rule="evenodd"/>
	</g>
	<g id="fill">
		<path fill="#fff" fill-rule="evenodd" d="M60 31a20 20 0 100 40 20 20 0 000-40m0 2c9.92 0 18 8.08 18 18s-8.08 18-18 18-18-8.08-18-18 8.08-18 18-18" clip-rule="evenodd"/>
		<path fill="#4871D9" fill-opacity=".5" fill-rule="evenodd" d="M60 31a20 20 0 100 40 20 20 0 000-40m0 2c9.92 0 18 8.08 18 18s-8.08 18-18 18-18-8.08-18-18 8.08-18 18-18" clip-rule="evenodd"/>
	</g>
</svg>
