<svg xmlns="http://www.w3.org/2000/svg" viewBox="0 0 120 120"><path d="M85 91H37V29h36v12h12v11h2V39.6L74.4 27H37c-1.1 0-2 .9-2 2v62c0 1.1.9 2 2 2h48c1.1 0 2-.9 2-2v-9h-2v9zM75 30.4l8.6 8.6H75v-8.6z" fill-rule="evenodd" clip-rule="evenodd" fill="#0c1233"/><path d="M86 51c-8.8 0-16 7.2-16 16s7.2 16 16 16 16-7.2 16-16-7.2-16-16-16zm0 30c-7.7 0-14-6.3-14-14s6.3-14 14-14 14 6.3 14 14-6.3 14-14 14zm-.2-7.6c-.7-.3-1.2-.5-1.9-.5-.8 0-1.2.3-1.2 1h-1.8c-.1-1.6.7-2.7 2.6-2.7h.1c0-.4.1-.8.1-1.2 0-.6-.2-1.2-.5-1.8h-2.1v-1.6h1.2c-.4-.7-.8-1.7-.8-2.5v-.3c0-2.3 1.6-3.9 4.2-3.9 2.5 0 4 1.6 4 3.9v.2H88v-.1c0-1.5-.6-2.4-2.2-2.4-1.5 0-2.2 1.1-2.2 2.4 0 .9.5 1.8 1 2.6h3.8v1.6h-3.2c.2.5.3 1.1.3 1.6 0 .7 0 1.2-.1 1.7.4.1.8.3 1.3.5.4.2.9.3 1.5.3.9 0 1.3-.6 1.2-1.4h1.7v.3c-.1 1.4-.8 2.9-3 2.9-.9.1-1.6-.3-2.3-.6z" fill-rule="evenodd" clip-rule="evenodd" fill="#b11212"/><path d="M42 81h11v-2H42v2zm0-4h23v-2H42v2zm0-5h11v-2H42v2zm0-4h23v-2H42v2zm0-5h11v-2H42v2zm0-4h23v-2H42v2zm0-5h11v-2H42v2zm0-4h23v-2H42v2zm0-5h11v-2H42v2zm0-4h23v-2H42v2z" fill-rule="evenodd" clip-rule="evenodd" fill="#fff"/><path d="M42 81h11v-2H42v2zm0-4h23v-2H42v2zm0-5h11v-2H42v2zm0-4h23v-2H42v2zm0-5h11v-2H42v2zm0-4h23v-2H42v2zm0-5h11v-2H42v2zm0-4h23v-2H42v2zm0-5h11v-2H42v2zm0-4h23v-2H42v2z" fill-rule="evenodd" clip-rule="evenodd" fill="#e53238" fill-opacity=".5"/></svg>