<svg xmlns="http://www.w3.org/2000/svg" viewBox="0 0 120 120"><path d="M74.3 84.5c-.3-.1-.6-.1-.8 0-.2.1-.4.2-.5.5l-3.3 6.2-6.3-16.4c4.1-.6 7.9-2.2 11.1-4.6l6.4 16.7-6.6-2.4zM60 73c-12.1 0-22-9.9-22-22s9.9-22 22-22 22 9.9 22 22-9.9 22-22 22zm-9.7 18.1L47 84.9c-.1-.2-.3-.4-.5-.5-.2-.1-.5-.1-.7 0l-6.6 2.4 6.4-16.7c3.2 2.4 7 4 11.1 4.6l-6.4 16.4zm25.8-22.3C81 64.4 84 58.1 84 51c0-13.2-10.8-24-24-24S36 37.8 36 51c0 7.1 3 13.4 7.9 17.8l-7.4 19.3c-.2.5.1 1.1.6 1.3.2.1.5.1.7 0h.1l7.8-2.8 4 7.3c.1.2.3.4.5.5.5.2 1.1-.1 1.3-.6L58.7 75h2.6l7.2 18.9c.2.5.8.8 1.3.6.2-.1.4-.3.5-.5l3.9-7.3 7.9 2.8c.2.1.5.1.7 0 .5-.2.8-.8.6-1.3l-7.3-19.4z" fill-rule="evenodd" clip-rule="evenodd" fill="#0c1233"/><path d="M72 43.9L56.7 59.2c-.2.2-.4.3-.7.3s-.5-.1-.7-.3L48 51.9l1.4-1.4 6.6 6.6 14.6-14.6 1.4 1.4z" fill-rule="evenodd" clip-rule="evenodd" fill="#b11212"/><path d="M60 31c-11 0-20 9-20 20s9 20 20 20 20-9 20-20-9-20-20-20zm0 2c9.9 0 18 8.1 18 18s-8.1 18-18 18-18-8.1-18-18 8.1-18 18-18z" fill-rule="evenodd" clip-rule="evenodd" fill="#fff"/><path d="M60 31c-11 0-20 9-20 20s9 20 20 20 20-9 20-20-9-20-20-20zm0 2c9.9 0 18 8.1 18 18s-8.1 18-18 18-18-8.1-18-18 8.1-18 18-18z" fill-rule="evenodd" clip-rule="evenodd" fill="#e53238" fill-opacity=".5"/></svg>